<svg xmlns="http://www.w3.org/2000/svg" version="1.1" xmlns:xlink="http://www.w3.org/1999/xlink" xmlns:svgjs="http://svgjs.dev/svgjs" width="1500" height="416" viewBox="0 0 1500 416"><g transform="matrix(1,0,0,1,-0.9084522071641459,-1.5984173084036684)"><svg viewBox="0 0 396 110" data-background-color="#f0f2f5" preserveAspectRatio="xMidYMid meet" height="416" width="1500" xmlns="http://www.w3.org/2000/svg" xmlns:xlink="http://www.w3.org/1999/xlink"><g id="tight-bounds" transform="matrix(1,0,0,1,0.24008861730862918,0.4228976168034819)"><svg viewBox="0 0 395.52 109.15444396030131" height="109.15444396030131" width="395.52"><g><svg viewBox="0 0 395.52 109.15444396030131" height="109.15444396030131" width="395.52"><g><svg viewBox="0 0 395.52 109.15444396030131" height="109.15444396030131" width="395.52"><g id="textblocktransform"><svg viewBox="0 0 395.52 109.15444396030131" height="109.15444396030131" width="395.52" id="textblock"><g><svg viewBox="0 0 395.52 91.7166846626713" height="91.7166846626713" width="395.52"><path d="M394.594 19.671C392.735 10.151 387.435 7.505 387.435 7.505 371.165-2.301 350.86-0.188 332.619 1.221 300.414 1.279 268.339 3.373 236.208 4.496 168.767 4.668 100.749 1.85 33.643 8.799 27.339 10.932-6.54 9.218 1.121 20.89 3.129 25.745 10.456 31.134 10.232 35.589 11.236 36.37 12.631 34.58 13.226 35.703 15.309 38.731 18.711 37.303 21.501 39.093 17.614 43.872 20.403 47.851 23.062 52.021 18.377 53.106 12.371 52.592 9.675 56.191 9.396 58.799 7.89 58.304 6.235 58.19 5.026 58.114 2.59 58.399 2.999 59.218 4.394 62.017-1.594 63.636 2.162 66.377-0.422 69.348 3.948 71.918 3.353 75.136 3.278 75.783 3.687 76.335 4.338 76.488 7.22 77.307 3.018 78.906 3.464 80.639 33.029 92.482 65.104 84.294 95.394 89.74 103.259 85.932 97.346 91.092 100.489 90.292 102.943 89.359 104.728 93.224 107.499 91.035 107.927 90.406 107.276 88.921 108.8 89.207 109.6 89.359 110.307 89.321 110.418 88.445 110.586 87.131 109.117 87.95 108.726 87.265 112.947 83.799 111.906 92.044 115.866 91.701 115.68 90.692 114.528 89.245 116.889 89.435 119.232 87.988 119.306 86.789 121.389 90.044 121.463 90.749 121.835 91.244 122.43 91.587 128.938 88.045 135.409 92.843 142.233 91.244 146.417 89.492 150.433 92.196 154.672 91.53 156.16 90.997 157.666 90.044 159.098 91.644 176.632 91.987 195.319 90.559 211.943 91.701 256.364 89.568 303.836 92.577 350.674 89.759 361.719 88.674 373.192 87.131 383.958 85.894 383.958 85.894 392.679 82.505 392.679 67.272S394.538 53.944 394.817 41.815C395.096 29.687 396.398 29.192 394.538 19.671Z" opacity="1" fill="#ffffff" data-fill-palette-color="tertiary"></path><g transform="matrix(1,0,0,1,55.76832,26.068561146666667)"><svg width="283.98335999999995" viewBox="2.55 -37.5 272.63 38" height="39.579562369337964" data-palette-color="#019963"><path d="M16.25-0.55L16.25-0.55Q18.75-0.55 20.68-1.9 22.6-3.25 22.6-5.98 22.6-8.7 20.53-10.15 18.45-11.6 14.63-12.68 10.8-13.75 9.08-14.55 7.35-15.35 5.8-16.65L5.8-16.65Q2.7-19.25 2.7-24.7L2.7-24.7Q2.7-29.15 5.88-32.35 9.05-35.55 14.55-35.55L14.55-35.55Q17.2-35.55 20.08-34.77 22.95-34 23.65-34 24.35-34 24.9-35L24.9-35 25.45-35 25.8-24.9 25-24.9Q22.6-29.25 19.98-31.88 17.35-34.5 14.28-34.5 11.2-34.5 9.5-33.08 7.8-31.65 7.8-29.28 7.8-26.9 9.83-25.63 11.85-24.35 14.8-23.55 17.75-22.75 18.68-22.45 19.6-22.15 20.98-21.63 22.35-21.1 23.23-20.53 24.1-19.95 25.08-19.07 26.05-18.2 26.6-17.15L26.6-17.15Q27.95-14.75 27.95-11.45L27.95-11.45Q27.95-6.05 24.58-2.78 21.2 0.5 15.7 0.5L15.7 0.5Q12.85 0.5 9.18-0.25 5.5-1 5.1-1L5.1-1Q4.4-1 3.75 0.5L3.75 0.5 3.05 0.5 2.55-11.4 3.4-11.4Q5.6-7.05 9.03-3.8 12.45-0.55 16.25-0.55ZM43.65 0.5Q37.2 0.5 33.97-2.83 30.75-6.15 30.75-12.08 30.75-18 34.37-21.15 38-24.3 43.6-24.3L43.6-24.3Q54.95-24.3 54.5-12.9L54.5-12.9 40.4-12.9 40.4-10.95Q40.4-6.05 41.65-3.55 42.9-1.05 46-1.05L46-1.05Q51.8-1.05 53.6-7.25L53.6-7.25 54.5-7.1Q53.55-3.5 51.07-1.5 48.6 0.5 43.65 0.5L43.65 0.5ZM40.45-16.35L40.45-13.9 45.6-13.9 45.6-16.35Q45.6-20.4 45.12-21.88 44.65-23.35 43.22-23.35 41.8-23.35 41.12-21.78 40.45-20.2 40.45-16.35L40.45-16.35ZM72.45-9.85L72.45-9.85 72.45-14.1Q72.45-18.95 71.92-21.18 71.4-23.4 69.5-23.4L69.5-23.4Q68.4-23.4 67.72-22.78 67.05-22.15 66.75-20.7L66.75-20.7Q66.3-18.45 66.3-13.85L66.3-13.85 66.3-9.95Q66.3-4.5 66.62-3.4 66.95-2.3 67.3-1.6L67.3-1.6Q67.84-0.4 69.45-0.4L69.45-0.4Q71.4-0.4 72-2.65L72-2.65Q72.45-4.25 72.45-9.85ZM69.34 0.5Q63.09 0.5 59.9-2.7 56.7-5.9 56.7-11.88 56.7-17.85 60.12-21.08 63.55-24.3 69.75-24.3 75.95-24.3 79-21.33 82.05-18.35 82.05-12.25L82.05-12.25Q82.05 0.5 69.34 0.5L69.34 0.5ZM112.69-0.9L112.69 0 101.29 0 100.74-3.65Q99.94-1.65 98.37-0.58 96.79 0.5 93.69 0.5L93.69 0.5Q85.94 0.5 85.94-7.85L85.94-7.85 85.94-22.9 83.14-22.9 83.14-23.8 95.24-23.8 95.24-6.65Q95.24-3.65 95.67-2.7 96.09-1.75 97.37-1.75 98.64-1.75 99.64-3.3 100.64-4.85 100.64-7.6L100.64-7.6 100.64-22.9 98.34-22.9 98.34-23.8 109.94-23.8 109.94-0.9 112.69-0.9ZM113.49-36.6L113.49-37.5 125.74-37.5 125.74-0.9 128.54-0.9 128.54 0 113.69 0 113.69-0.9 116.44-0.9 116.44-36.6 113.49-36.6ZM147.74-13.45Q147.74-18.6 147.24-20.38 146.74-22.15 145.29-22.15 143.84-22.15 142.69-20.35 141.54-18.55 141.54-15.4L141.54-15.4 141.54-6.1Q141.54-3.95 142.41-2.45 143.29-0.95 144.91-0.95 146.54-0.95 147.14-3.15 147.74-5.35 147.74-10.85L147.74-10.85 147.74-13.45ZM129.49-37.5L141.54-37.5 141.54-20Q143.44-24.3 148.04-24.3L148.04-24.3Q157.39-24.3 157.39-11.85L157.39-11.85Q157.39-5.5 154.81-2.5 152.24 0.5 147.09 0.5L147.09 0.5Q144.49 0.5 143.11-0.3 141.74-1.1 141.24-2.95L141.24-2.95 140.89 0 129.49 0 129.49-0.9 132.24-0.9 132.24-36.6 129.49-36.6 129.49-37.5ZM175.04-9.85L175.04-9.85 175.04-14.1Q175.04-18.95 174.51-21.18 173.99-23.4 172.09-23.4L172.09-23.4Q170.99-23.4 170.31-22.78 169.64-22.15 169.34-20.7L169.34-20.7Q168.89-18.45 168.89-13.85L168.89-13.85 168.89-9.95Q168.89-4.5 169.21-3.4 169.54-2.3 169.89-1.6L169.89-1.6Q170.44-0.4 172.04-0.4L172.04-0.4Q173.99-0.4 174.59-2.65L174.59-2.65Q175.04-4.25 175.04-9.85ZM171.94 0.5Q165.69 0.5 162.49-2.7 159.29-5.9 159.29-11.88 159.29-17.85 162.71-21.08 166.14-24.3 172.34-24.3 178.54-24.3 181.59-21.33 184.64-18.35 184.64-12.25L184.64-12.25Q184.64 0.5 171.94 0.5L171.94 0.5ZM215.28-0.9L215.28 0 203.88 0 203.33-3.65Q202.53-1.65 200.96-0.58 199.38 0.5 196.28 0.5L196.28 0.5Q188.53 0.5 188.53-7.85L188.53-7.85 188.53-22.9 185.73-22.9 185.73-23.8 197.83-23.8 197.83-6.65Q197.83-3.65 198.26-2.7 198.68-1.75 199.96-1.75 201.23-1.75 202.23-3.3 203.23-4.85 203.23-7.6L203.23-7.6 203.23-22.9 200.93-22.9 200.93-23.8 212.53-23.8 212.53-0.9 215.28-0.9ZM216.38-22.9L216.38-23.8 228.43-23.8 228.43-19.2Q229.23-21.5 230.88-22.9 232.53-24.3 235.88-24.3L235.88-24.3Q243.63-24.3 243.63-15.95L243.63-15.95 243.63-0.9 246.43-0.9 246.43 0 232.28 0 232.28-0.9 234.33-0.9 234.33-17.15Q234.33-20.15 233.93-21.03 233.53-21.9 232.48-21.9L232.48-21.9Q230.88-21.9 229.66-19.8 228.43-17.7 228.43-14.7L228.43-14.7 228.43-0.9 230.58-0.9 230.58 0 216.38 0 216.38-0.9 219.13-0.9 219.13-22.9 216.38-22.9ZM257.23-10.35Q257.23-5.1 257.78-3.38 258.33-1.65 259.8-1.65 261.28-1.65 262.35-2.95 263.43-4.25 263.43-6.8L263.43-6.8 263.43-17.7Q263.43-19.85 262.58-21.35 261.73-22.85 260.08-22.85 258.43-22.85 257.83-20.65 257.23-18.45 257.23-12.95L257.23-12.95 257.23-10.35ZM275.18 0L264.08 0 263.53-3.5Q261.83 0.5 256.63 0.5L256.63 0.5Q252.33 0.5 249.95-2.6 247.58-5.7 247.58-11.85L247.58-11.85Q247.58-24.3 257.48-24.3L257.48-24.3Q261.88-24.3 263.28-21.85L263.28-21.85 263.28-36.6 260.23-36.6 260.23-37.5 272.73-37.5 272.73-0.9 275.18-0.9 275.18 0Z" opacity="1" transform="matrix(1,0,0,1,0,0)" fill="#019963" class="wordmark-text-0" data-fill-palette-color="quaternary" id="text-0"></path></svg></g></svg></g><g transform="matrix(1,0,0,1,75.54432,101.06046942857513)"><svg viewBox="0 0 244.43135999999998 8.093974531726177" height="8.093974531726177" width="244.43135999999998"><g transform="matrix(1,0,0,1,0,0)"><svg width="244.43135999999998" viewBox="1.6 -35.7 1099.16 36.400000000000006" height="8.093974531726177" data-palette-color="#111111"><path d="M17.6 0L14 0 14-14.8 1.6-35 5.4-35 16.55-16.7 16.85-16.7 25.75-35 29.55-35 17.6-15.5 17.6 0ZM33.15-17.5L33.15-17.5Q33.15-21.35 34.52-24.68 35.9-28 38.37-30.48 40.85-32.95 44.17-34.33 47.5-35.7 51.35-35.7L51.35-35.7Q55.2-35.7 58.52-34.33 61.85-32.95 64.32-30.48 66.8-28 68.17-24.68 69.55-21.35 69.55-17.5L69.55-17.5Q69.55-13.65 68.17-10.33 66.8-7 64.32-4.53 61.85-2.05 58.52-0.68 55.2 0.7 51.35 0.7L51.35 0.7Q47.5 0.7 44.17-0.68 40.85-2.05 38.37-4.53 35.9-7 34.52-10.33 33.15-13.65 33.15-17.5ZM36.95-17.5L36.95-17.5Q36.95-12.4 38.75-8.58 40.55-4.75 43.8-2.63 47.05-0.5 51.35-0.5L51.35-0.5Q55.65-0.5 58.9-2.63 62.15-4.75 63.95-8.6 65.75-12.45 65.75-17.5L65.75-17.5Q65.75-22.55 63.95-26.38 62.15-30.2 58.9-32.35 55.65-34.5 51.35-34.5L51.35-34.5Q47.05-34.5 43.82-32.38 40.6-30.25 38.77-26.43 36.95-22.6 36.95-17.5ZM79.55-14L79.55-35 82.95-35 82.95-13.9Q82.95-7.85 85.92-4.48 88.9-1.1 94.3-1.1L94.3-1.1Q97.7-1.1 100.22-2.43 102.75-3.75 104.12-6.1 105.5-8.45 105.4-11.5L105.4-11.5 104.55-35 107.95-35 107.1-11.5Q106.9-5.5 103.52-2.4 100.15 0.7 93.9 0.7L93.9 0.7Q87.15 0.7 83.35-3.23 79.55-7.15 79.55-14L79.55-14ZM119.94 0L119.94-35 126.64-35Q131.94-35 134.87-32.77 137.79-30.55 137.79-26.55L137.79-26.55Q137.79-23.45 135.97-21.4 134.14-19.35 130.69-18.65L130.69-18.65 130.69-18.35Q133.99-17.7 136.09-15.25 138.19-12.8 139.24-9.2L139.24-9.2Q140.19-5.9 141.12-4.08 142.04-2.25 143.17-1.45 144.29-0.65 145.84-0.3L145.84-0.3 145.84 0 143.79 0Q141.59 0 140.17-0.8 138.74-1.6 137.74-3.5 136.74-5.4 135.84-8.75L135.84-8.75Q134.39-13.9 131.99-16.05 129.59-18.2 126.14-18.2L126.14-18.2 125.84-18.2 125.84-19.1 126.14-19.1Q134.19-19.1 134.19-26.5L134.19-26.5Q134.19-33.8 126.64-33.8L126.64-33.8 123.34-33.8 123.34 0 119.94 0ZM192.24-16.6L182.99-16.6 182.99-17.8 195.64-17.8 195.64-4.2Q193.34-1.9 190.01-0.6 186.69 0.7 182.59 0.7L182.59 0.7Q178.39 0.7 174.84-0.68 171.29-2.05 168.64-4.53 165.99-7 164.51-10.3 163.04-13.6 163.04-17.5L163.04-17.5Q163.04-21.4 164.51-24.7 165.99-28 168.64-30.48 171.29-32.95 174.84-34.33 178.39-35.7 182.59-35.7L182.59-35.7Q184.39-35.7 186.51-35.45 188.64-35.2 190.59-34.77 192.54-34.35 193.89-33.75L193.89-33.75 193.64-30.95 193.34-30.95Q191.34-32.7 188.54-33.6 185.74-34.5 182.59-34.5L182.59-34.5Q177.89-34.5 174.34-32.38 170.79-30.25 168.81-26.43 166.84-22.6 166.84-17.5L166.84-17.5Q166.84-12.4 168.81-8.58 170.79-4.75 174.34-2.63 177.89-0.5 182.59-0.5L182.59-0.5Q185.49-0.5 187.96-1.3 190.44-2.1 192.24-3.6L192.24-3.6 192.24-16.6ZM205.59 0L201.94 0 215.39-35 218.49-35 231.94 0 228.29 0 222.09-16.4 210.74-16.4 205.59 0ZM216.04-32.4L215.74-32.4 211.09-17.6 221.64-17.6 216.04-32.4ZM248.43 0L245.03 0 245.03-34Q244.28-34 241.93-33.7L241.93-33.7 232.13-32.45 232.13-35 261.33-35 261.33-32.45 251.53-33.7Q249.18-34 248.43-34L248.43-34 248.43 0ZM284.83 0L269.43 0 269.43-35 284.68-35 284.68-32.55 275.93-33.7Q273.63-34 272.83-34L272.83-34 272.83-18.75Q273.48-18.75 275.93-18.9L275.93-18.9 284.13-19.4 284.13-17.1 275.93-17.6Q273.48-17.75 272.83-17.75L272.83-17.75 272.83-1Q273.73-1 275.98-1.3L275.98-1.3 284.83-2.45 284.83 0ZM304.83 0.7L290.43-35 294.08-35 306.33-4.4 306.63-4.4 314.63-24.2 310.28-35 313.93-35 326.13-4.5 326.43-4.5 336.53-35 340.18-35 325.78 0.7 324.68 0.7 315.33-22.55 305.93 0.7 304.83 0.7ZM344.67 0L341.02 0 354.47-35 357.57-35 371.02 0 367.37 0 361.17-16.4 349.82-16.4 344.67 0ZM355.12-32.4L354.82-32.4 350.17-17.6 360.72-17.6 355.12-32.4ZM387.22 0L383.62 0 383.62-14.8 371.22-35 375.02-35 386.17-16.7 386.47-16.7 395.37-35 399.17-35 387.22-15.5 387.22 0ZM431.87 0L428.47 0 428.47-34Q427.72-34 425.37-33.7L425.37-33.7 415.57-32.45 415.57-35 444.77-35 444.77-32.45 434.97-33.7Q432.62-34 431.87-34L431.87-34 431.87 0ZM448.86-17.5L448.86-17.5Q448.86-21.35 450.24-24.68 451.61-28 454.09-30.48 456.56-32.95 459.89-34.33 463.21-35.7 467.06-35.7L467.06-35.7Q470.91-35.7 474.24-34.33 477.56-32.95 480.04-30.48 482.51-28 483.89-24.68 485.26-21.35 485.26-17.5L485.26-17.5Q485.26-13.65 483.89-10.33 482.51-7 480.04-4.53 477.56-2.05 474.24-0.68 470.91 0.7 467.06 0.7L467.06 0.7Q463.21 0.7 459.89-0.68 456.56-2.05 454.09-4.53 451.61-7 450.24-10.33 448.86-13.65 448.86-17.5ZM452.66-17.5L452.66-17.5Q452.66-12.4 454.46-8.58 456.26-4.75 459.51-2.63 462.76-0.5 467.06-0.5L467.06-0.5Q471.36-0.5 474.61-2.63 477.86-4.75 479.66-8.6 481.46-12.45 481.46-17.5L481.46-17.5Q481.46-22.55 479.66-26.38 477.86-30.2 474.61-32.35 471.36-34.5 467.06-34.5L467.06-34.5Q462.76-34.5 459.54-32.38 456.31-30.25 454.49-26.43 452.66-22.6 452.66-17.5ZM535.36 0L530.86 0 514.46-17.95 529.66-35 533.96-35 517.51-19.35 535.36 0ZM512.66 0L509.26 0 509.26-35 512.66-35 512.66 0ZM538.36-17.5L538.36-17.5Q538.36-21.35 539.73-24.68 541.11-28 543.58-30.48 546.06-32.95 549.38-34.33 552.71-35.7 556.56-35.7L556.56-35.7Q560.41-35.7 563.73-34.33 567.06-32.95 569.53-30.48 572.01-28 573.38-24.68 574.76-21.35 574.76-17.5L574.76-17.5Q574.76-13.65 573.38-10.33 572.01-7 569.53-4.53 567.06-2.05 563.73-0.68 560.41 0.7 556.56 0.7L556.56 0.7Q552.71 0.7 549.38-0.68 546.06-2.05 543.58-4.53 541.11-7 539.73-10.33 538.36-13.65 538.36-17.5ZM542.16-17.5L542.16-17.5Q542.16-12.4 543.96-8.58 545.76-4.75 549.01-2.63 552.26-0.5 556.56-0.5L556.56-0.5Q560.86-0.5 564.11-2.63 567.36-4.75 569.16-8.6 570.96-12.45 570.96-17.5L570.96-17.5Q570.96-22.55 569.16-26.38 567.36-30.2 564.11-32.35 560.86-34.5 556.56-34.5L556.56-34.5Q552.26-34.5 549.03-32.38 545.81-30.25 543.98-26.43 542.16-22.6 542.16-17.5ZM585.25 0L585.25-35 591.95-35Q597.25-35 600.18-32.77 603.1-30.55 603.1-26.55L603.1-26.55Q603.1-23.45 601.28-21.4 599.45-19.35 596-18.65L596-18.65 596-18.35Q599.3-17.7 601.4-15.25 603.5-12.8 604.55-9.2L604.55-9.2Q605.5-5.9 606.43-4.08 607.35-2.25 608.48-1.45 609.6-0.65 611.15-0.3L611.15-0.3 611.15 0 609.1 0Q606.9 0 605.48-0.8 604.05-1.6 603.05-3.5 602.05-5.4 601.15-8.75L601.15-8.75Q599.7-13.9 597.3-16.05 594.9-18.2 591.45-18.2L591.45-18.2 591.15-18.2 591.15-19.1 591.45-19.1Q599.5-19.1 599.5-26.5L599.5-26.5Q599.5-33.8 591.95-33.8L591.95-33.8 588.65-33.8 588.65 0 585.25 0ZM632.75 0L617.35 0 617.35-35 632.6-35 632.6-32.55 623.85-33.7Q621.55-34 620.75-34L620.75-34 620.75-18.75Q621.4-18.75 623.85-18.9L623.85-18.9 632.05-19.4 632.05-17.1 623.85-17.6Q621.4-17.75 620.75-17.75L620.75-17.75 620.75-1Q621.65-1 623.9-1.3L623.9-1.3 632.75-2.45 632.75 0ZM641.7 0L638.05 0 651.5-35 654.6-35 668.05 0 664.4 0 658.2-16.4 646.85-16.4 641.7 0ZM652.15-32.4L651.85-32.4 647.2-17.6 657.75-17.6 652.15-32.4ZM674.35-32L674.35-32 672.95-23.6 672.05-23.6 670.65-32Q670.55-32.6 670.55-33.15L670.55-33.15Q670.55-34 670.95-34.75 671.35-35.5 672.5-35.5L672.5-35.5Q673.65-35.5 674.05-34.75 674.45-34 674.45-33.15L674.45-33.15Q674.45-32.85 674.42-32.55 674.4-32.25 674.35-32ZM681.64-1.1L681.64-1.1 681.94-4.1 682.24-4.1Q684.19-2.4 686.64-1.45 689.09-0.5 691.49-0.5L691.49-0.5Q694.89-0.5 696.99-2.38 699.09-4.25 699.09-7.4L699.09-7.4Q699.09-9.15 698.32-10.65 697.54-12.15 695.77-13.7 693.99-15.25 690.89-17.05L690.89-17.05Q688.74-18.3 686.79-19.68 684.84-21.05 683.59-22.88 682.34-24.7 682.34-27.25L682.34-27.25Q682.34-31.05 685.09-33.38 687.84-35.7 692.34-35.7L692.34-35.7Q694.34-35.7 696.64-35.27 698.94-34.85 700.19-34.2L700.19-34.2 699.94-31.4 699.64-31.4Q696.79-34.5 692.34-34.5L692.34-34.5Q689.14-34.5 687.19-32.88 685.24-31.25 685.24-28.5L685.24-28.5Q685.24-26.45 686.32-24.98 687.39-23.5 689.09-22.33 690.79-21.15 692.74-20.05L692.74-20.05Q694.99-18.75 697.12-17.3 699.24-15.85 700.62-13.83 701.99-11.8 701.99-8.75L701.99-8.75Q701.99-5.95 700.69-3.83 699.39-1.7 697.02-0.5 694.64 0.7 691.49 0.7L691.49 0.7Q689.49 0.7 686.79 0.2 684.09-0.3 681.64-1.1ZM733.44 0L725.34 0 725.34-35 732.29-35Q737.69-35 740.69-32.75 743.69-30.5 743.69-26.5L743.69-26.5Q743.69-23.55 741.94-21.48 740.19-19.4 737.04-18.65L737.04-18.65 737.04-18.35Q741.34-17.8 743.76-15.38 746.19-12.95 746.19-9.25L746.19-9.25Q746.19-4.9 742.84-2.45 739.49 0 733.44 0L733.44 0ZM732.34-33.8L732.34-33.8 728.74-33.8 728.74-18.8 732.29-18.8Q740.19-18.8 740.19-26.3L740.19-26.3Q740.19-33.8 732.34-33.8ZM733.44-17.6L733.44-17.6 728.74-17.6 728.74-1.2 733.44-1.2Q742.59-1.2 742.59-9.4L742.59-9.4Q742.59-17.6 733.44-17.6ZM771.59 0L756.19 0 756.19-35 771.44-35 771.44-32.55 762.69-33.7Q760.39-34 759.59-34L759.59-34 759.59-18.75Q760.24-18.75 762.69-18.9L762.69-18.9 770.89-19.4 770.89-17.1 762.69-17.6Q760.24-17.75 759.59-17.75L759.59-17.75 759.59-1Q760.49-1 762.74-1.3L762.74-1.3 771.59-2.45 771.59 0ZM779.03-1.1L779.03-1.1 779.33-4.1 779.63-4.1Q781.58-2.4 784.03-1.45 786.48-0.5 788.88-0.5L788.88-0.5Q792.28-0.5 794.38-2.38 796.48-4.25 796.48-7.4L796.48-7.4Q796.48-9.15 795.71-10.65 794.93-12.15 793.16-13.7 791.38-15.25 788.28-17.05L788.28-17.05Q786.13-18.3 784.18-19.68 782.23-21.05 780.98-22.88 779.73-24.7 779.73-27.25L779.73-27.25Q779.73-31.05 782.48-33.38 785.23-35.7 789.73-35.7L789.73-35.7Q791.73-35.7 794.03-35.27 796.33-34.85 797.58-34.2L797.58-34.2 797.33-31.4 797.03-31.4Q794.18-34.5 789.73-34.5L789.73-34.5Q786.53-34.5 784.58-32.88 782.63-31.25 782.63-28.5L782.63-28.5Q782.63-26.45 783.71-24.98 784.78-23.5 786.48-22.33 788.18-21.15 790.13-20.05L790.13-20.05Q792.38-18.75 794.51-17.3 796.63-15.85 798.01-13.83 799.38-11.8 799.38-8.75L799.38-8.75Q799.38-5.95 798.08-3.83 796.78-1.7 794.41-0.5 792.03 0.7 788.88 0.7L788.88 0.7Q786.88 0.7 784.18 0.2 781.48-0.3 779.03-1.1ZM819.63 0L816.23 0 816.23-34Q815.48-34 813.13-33.7L813.13-33.7 803.33-32.45 803.33-35 832.53-35 832.53-32.45 822.73-33.7Q820.38-34 819.63-34L819.63-34 819.63 0ZM865.13 0L854.13 0 854.13-35 865.13-35Q870.93-35 875.23-32.8 879.53-30.6 881.93-26.68 884.33-22.75 884.33-17.5L884.33-17.5Q884.33-12.25 881.93-8.33 879.53-4.4 875.23-2.2 870.93 0 865.13 0L865.13 0ZM865.13-33.8L865.13-33.8 857.53-33.8 857.53-1.2 865.13-1.2Q872.38-1.2 876.45-5.5 880.53-9.8 880.53-17.5L880.53-17.5Q880.53-25.2 876.45-29.5 872.38-33.8 865.13-33.8ZM894.82 0L894.82-35 901.52-35Q906.82-35 909.75-32.77 912.67-30.55 912.67-26.55L912.67-26.55Q912.67-23.45 910.85-21.4 909.02-19.35 905.57-18.65L905.57-18.65 905.57-18.35Q908.87-17.7 910.97-15.25 913.07-12.8 914.12-9.2L914.12-9.2Q915.07-5.9 916-4.08 916.92-2.25 918.05-1.45 919.17-0.65 920.72-0.3L920.72-0.3 920.72 0 918.67 0Q916.47 0 915.05-0.8 913.62-1.6 912.62-3.5 911.62-5.4 910.72-8.75L910.72-8.75Q909.27-13.9 906.87-16.05 904.47-18.2 901.02-18.2L901.02-18.2 900.72-18.2 900.72-19.1 901.02-19.1Q909.07-19.1 909.07-26.5L909.07-26.5Q909.07-33.8 901.52-33.8L901.52-33.8 898.22-33.8 898.22 0 894.82 0ZM926.87 0L923.22 0 936.67-35 939.77-35 953.22 0 949.57 0 943.37-16.4 932.02-16.4 926.87 0ZM937.32-32.4L937.02-32.4 932.37-17.6 942.92-17.6 937.32-32.4ZM990.67-35L994.27-35 994.27 0 990.87 0 990.87-32.1 990.57-32.1 978.47-8.9 976.92-8.9 963.17-29.35 962.87-29.35 963.97 0 960.57 0 961.82-35.7 962.82-35.7 978.57-12.3 978.87-12.3 990.67-35ZM1005.72 0L1002.07 0 1015.52-35 1018.62-35 1032.07 0 1028.42 0 1022.22-16.4 1010.87-16.4 1005.72 0ZM1016.17-32.4L1015.87-32.4 1011.22-17.6 1021.77-17.6 1016.17-32.4ZM1037.11-1.1L1037.11-1.1 1037.41-4.1 1037.71-4.1Q1039.66-2.4 1042.11-1.45 1044.56-0.5 1046.96-0.5L1046.96-0.5Q1050.36-0.5 1052.46-2.38 1054.56-4.25 1054.56-7.4L1054.56-7.4Q1054.56-9.15 1053.79-10.65 1053.01-12.15 1051.24-13.7 1049.46-15.25 1046.36-17.05L1046.36-17.05Q1044.21-18.3 1042.26-19.68 1040.31-21.05 1039.06-22.88 1037.81-24.7 1037.81-27.25L1037.81-27.25Q1037.81-31.05 1040.56-33.38 1043.31-35.7 1047.81-35.7L1047.81-35.7Q1049.81-35.7 1052.11-35.27 1054.41-34.85 1055.66-34.2L1055.66-34.2 1055.41-31.4 1055.11-31.4Q1052.26-34.5 1047.81-34.5L1047.81-34.5Q1044.61-34.5 1042.66-32.88 1040.71-31.25 1040.71-28.5L1040.71-28.5Q1040.71-26.45 1041.79-24.98 1042.86-23.5 1044.56-22.33 1046.26-21.15 1048.21-20.05L1048.21-20.05Q1050.46-18.75 1052.59-17.3 1054.71-15.85 1056.09-13.83 1057.46-11.8 1057.46-8.75L1057.46-8.75Q1057.46-5.95 1056.16-3.83 1054.86-1.7 1052.49-0.5 1050.11 0.7 1046.96 0.7L1046.96 0.7Q1044.96 0.7 1042.26 0.2 1039.56-0.3 1037.11-1.1ZM1064.26-14.35L1063.26-15.2Q1065.16-17.45 1066.84-18.25 1068.51-19.05 1070.01-19.05L1070.01-19.05Q1071.16-19.05 1072.36-18.63 1073.56-18.2 1075.51-17.1L1075.51-17.1Q1077.46-16 1078.69-15.55 1079.91-15.1 1081.01-15.1L1081.01-15.1Q1082.56-15.1 1083.74-15.85 1084.91-16.6 1086.46-18.3L1086.46-18.3 1087.46-17.45Q1085.56-15.2 1083.89-14.4 1082.21-13.6 1080.71-13.6L1080.71-13.6Q1079.56-13.6 1078.36-14.03 1077.16-14.45 1075.21-15.55L1075.21-15.55Q1073.26-16.7 1072.06-17.13 1070.86-17.55 1069.71-17.55L1069.71-17.55Q1068.16-17.55 1066.99-16.8 1065.81-16.05 1064.26-14.35L1064.26-14.35ZM1098.66-8.65L1097.66-8.65 1096.06-35 1100.26-35 1098.66-8.65ZM1095.56-2.1L1095.56-2.1Q1095.56-3.25 1096.31-3.98 1097.06-4.7 1098.16-4.7L1098.16-4.7Q1099.31-4.7 1100.03-3.98 1100.76-3.25 1100.76-2.1L1100.76-2.1Q1100.76-1 1100.03-0.25 1099.31 0.5 1098.16 0.5L1098.16 0.5Q1097.06 0.5 1096.31-0.25 1095.56-1 1095.56-2.1Z" opacity="1" transform="matrix(1,0,0,1,0,0)" fill="#111111" class="slogan-text-1" data-fill-palette-color="secondary" id="text-1"></path></svg></g></svg></g></svg></g></svg></g><g></g></svg></g><defs></defs></svg><rect width="395.52" height="109.15444396030131" fill="none" stroke="none" visibility="hidden"></rect></g></svg></g></svg>